PathFileType	4	(X/Y/Z)	5_coords_data.trc
DataRate	CameraRate	NumFrames	NumMarkers	Units	OrigDataRate	OrigDataStartFrame	OrigNumFrames
30.0	30.0	4	21	m	30.0	1	77
Frame#	Time	THUMB_TIP	THUMB_IP	THUMB_MCP	THUMB_CMC	INDEX_TIP	INDEX_DIP	INDEX_PIP	INDEX_MCP	MIDDLE_TIP	MIDDLE_DIP	MIDDLE_PIP	MIDDLE_MCP	RING_TIP	RING_DIP	RING_PIP	RING_MCP	PINKY_TIP	PINKY_DIP	PINKY_PIP	PINKY_MCP	WRIST
X1	Y1	Z1	X2	Y2	Z2	X3	Y3	Z3	X4	Y4	Z4	X5	Y5	Z5	X6	Y6	Z6	X7	Y7	Z7	X8	Y8	Z8	X9	Y9	Z9	X10	Y10	Z10	X11	Y11	Z11	X12	Y12	Z12	X13	Y13	Z13	X14	Y14	Z14	X15	Y15	Z15	X16	Y16	Z16	X17	Y17	Z17	X18	Y18	Z18	X19	Y19	Z19	X20	Y20	Z20	X21	Y21	Z21
0	-2.749317978547796e-18	0.521031088994699	-0.008921866693906044	-0.10188252126195955	0.5119629522133342	-0.012891736477649851	-0.12261918032784036	0.48094965209465346	-0.01549065795853255	-0.12212844324462462	0.47246061894733116	-0.021163869058579587	-0.07870447530020519	0.4935471996832618	-0.022214408360789806	-0.1000482554888921	0.502903906640053	-0.00897138919477769	-0.10811513086250293	0.5157557908405506	0.009573759941156723	-0.11920189545019753	0.4892440279161412	0.038772857395042826	-0.10313406334632076	0.4962121739369165	-0.023564907019885895	-0.08547379230321417	0.5085859513029903	-0.01172133992777924	-0.09135763052580406	0.52749312753829	0.0081847631967501	-0.10113900543953254	0.5011899502767075	0.04053673572946531	-0.08508781669264526	0.49965896427096423	-0.0166660717340521	-0.07111749342845142	0.5142621921486917	-0.008230429172036868	-0.07748818178349472	0.5334292579215468	0.006743970553820922	-0.08283335919021237	0.5118391224678349	0.037718357509809675	-0.06837050201083575	0.502135939602575	-0.025003579665205167	-0.0601071872536898	0.5179301639400048	-0.02094161347204293	-0.06530746688314695	0.5351953093464289	-0.00937586341356167	-0.06830082597950819	0.5218559114257305	0.020642748427335822	-0.05340697297705095	0.4622830810018609	-0.023011742144276925	-0.051989820119431
1	0.03333333333333339	0.5211267247920852	-0.008685468330451362	-0.10140196037121316	0.5117624908665458	-0.012269519364572656	-0.1220772040498882	0.48073593125889136	-0.014752432412403538	-0.12198921706465608	0.47259446056247956	-0.02170718103050251	-0.07868519962333176	0.4936490038220469	-0.0227136079221818	-0.09975400761680335	0.5028074168016846	-0.009536084268115363	-0.1081490264995055	0.5158389922492231	0.00888805534507886	-0.11922778788644028	0.4896124649582567	0.03844039469384425	-0.10333865325702753	0.49458213537523465	-0.021752578540849776	-0.0865108817941842	0.5084255764168204	-0.011419377407800746	-0.09195000805417267	0.5275603058579477	0.00831840520472038	-0.10162945105238874	0.5011278564661543	0.04044399626600237	-0.08533773723481977	0.4992410844633941	-0.01576512288413001	-0.07164341660643878	0.5143585854040789	-0.008231126557760926	-0.07794421533855653	0.5337379648310736	0.0063808129046299955	-0.08352192608509021	0.5122117796223196	0.03728810092477508	-0.06882213929758128	0.5022137404391233	-0.022664836547998446	-0.059989373022233075	0.5182364671918617	-0.021799042510131317	-0.06594945927086038	0.535395775765331	-0.010077244112846162	-0.06894438675142894	0.5222342765743869	0.020088779785726874	-0.054190763732065134	0.4622830810018609	-0.023011742144276925	-0.051989820119430985
2	0.06666666666666676	0.5211412915978242	-0.008465151603342158	-0.10102831803314408	0.511545426703259	-0.01172060334631786	-0.12165164004669005	0.480511512824496	-0.014102815189713569	-0.12185475602024408	0.4726700598074066	-0.022077901698242086	-0.07867143042155654	0.4936538619746599	-0.02302826601524055	-0.09954470362696644	0.5026994791446923	-0.00992525565811675	-0.10817534262963141	0.5158659576188287	0.008404413243744746	-0.11925130378603833	0.4898598719671431	0.03821264068498931	-0.1034782514533976	0.49309431267785586	-0.01973888115873157	-0.0875281462063027	0.5082783677954442	-0.011158227267917153	-0.09240839712117284	0.5275898915423152	0.008446840730576888	-0.10200610045835012	0.5010625405497661	0.04039125234658497	-0.08551361317397858	0.49894312587689815	-0.015061312972763918	-0.0720741781473121	0.5144106496198445	-0.008208636906675726	-0.07830286500688785	0.5339530344134333	0.006115617681930252	-0.08405533456874684	0.5124839169775793	0.036967113397462725	-0.06915623920560489	0.5027015832525539	-0.020538378682289804	-0.05998496020185953	0.5184388964349862	-0.02244809917063384	-0.06644173505115016	0.5355200344653365	-0.010614320352723916	-0.06944313830244961	0.5225135303015895	0.019663180145523818	-0.05478069430367992	0.4622830810018609	-0.023011742144276925	-0.051989820119430985
3	0.10000000000000014	0.5211013176191202	-0.008282860443164952	-0.10076989992768731	0.5113311578537726	-0.011263209346036418	-0.12135293902731348	0.4802926012292351	-0.013560031026791153	-0.1217435959512181	0.47270168017792413	-0.022312968492149032	-0.07866629330446108	0.49357699342673533	-0.02319086528749925	-0.09941904688363098	0.5025893505236998	-0.010164202570596137	-0.10819876658398811	0.5158516428229787	0.008095368652944579	-0.11927619835768623	0.4900066782088607	0.03807485165595703	-0.10356300336217127	0.491927300162494	-0.01776599793137812	-0.08846430608868781	0.5081443051453897	-0.010935358218959301	-0.09274812570485538	0.5275887114038371	0.008569218321103245	-0.1022820708090233	0.5009963210868509	0.04037329166670256	-0.08562393115128253	0.49875044594417406	-0.014589657908104736	-0.07240748161336225	0.5144266370888463	-0.008170951864683307	-0.07857653696437422	0.5340900644054676	0.0059358179119679555	-0.08445264550936432	0.5126716674104925	0.036742351603876955	-0.06938843009484894	0.5033285740244652	-0.018952447082817292	-0.06007473163303556	0.5185588684755624	-0.022911222084221028	-0.06681017752927243	0.5355881051592969	-0.011005514899371294	-0.06982202968334149	0.5227132339090643	0.019349881928826584	-0.05520453931417825	0.462283081001861	-0.023011742144276925	-0.051989820119430985
